<svg width="186" height="186" viewBox="0 0 186 186" fill="none" xmlns="http://www.w3.org/2000/svg">
<path fill-rule="evenodd" clip-rule="evenodd" d="M70.7185 0.493885C60.6552 16.5429 58.076 39.0602 60.9523 62.2872C65.254 96.9908 81.7085 133.266 103.131 151.738C103.577 152.113 104.246 152.062 104.621 151.626C105.006 151.18 104.956 150.521 104.51 150.136C83.4219 131.948 67.2816 96.2 63.0539 62.0236C60.2385 39.3238 62.6686 17.3033 72.513 1.61923C72.8273 1.12245 72.6753 0.473652 72.1785 0.159363C71.6918 -0.144788 71.0328 -0.00289529 70.7185 0.493885Z" fill="black"/>
<path fill-rule="evenodd" clip-rule="evenodd" d="M121.322 179.966C109.46 168.631 100.194 157.479 84.0129 150.939C83.4655 150.727 82.847 150.98 82.6341 151.527C82.4111 152.065 82.6747 152.683 83.212 152.896C101.015 160.094 110.281 173.011 124.12 185.461C124.871 186.13 125.499 185.714 125.641 185.602C125.854 185.44 126.138 185.116 126.037 184.548C126.016 184.437 125.945 184.224 125.803 183.94C125.519 183.402 124.85 182.358 124.597 181.861C123.877 180.422 123.198 178.972 122.478 177.532C120.42 173.416 118.412 169.29 116.709 165.022C110.312 149.064 104.979 136.056 111.589 119.531C111.812 118.983 111.549 118.375 111.001 118.152C110.464 117.939 109.846 118.203 109.633 118.74C102.789 135.833 108.132 149.307 114.742 165.812C116.476 170.131 118.504 174.318 120.582 178.475C120.836 178.972 121.079 179.469 121.322 179.966Z" fill="black"/>
</svg>
