<svg width="121" height="24" viewBox="0 0 121 24" fill="none" xmlns="http://www.w3.org/2000/svg">
<path d="M8.47511 23.5041H3.96032V12.1291H0.884766V8.42556H3.9602V5.79025C3.9602 2.66742 5.32048 0.427734 9.82304 0.427734C10.7753 0.427734 12.2704 0.621731 12.2704 0.621731V4.06063H10.7001C9.10007 4.06063 8.47535 4.55253 8.47535 5.91244V8.42556H12.2105L11.8779 12.1291H8.47523L8.47511 23.5041ZM18.8344 8.1296C18.7686 8.1296 18.7009 8.13202 18.634 8.13371C14.4476 8.13371 12.5322 11.3164 12.5322 15.8342C12.5322 21.5255 15.0167 23.8034 18.6667 23.8034C20.7549 23.8034 22.127 22.915 22.9609 21.2572V23.5057H27.2551V8.42713H22.9609V10.746C22.28 9.2541 20.8696 8.14728 18.8344 8.1296ZM19.9263 11.6926C21.6846 11.6926 22.7399 12.9322 22.7399 15.0406L22.744 17.194C22.744 18.6151 21.8723 20.2776 19.9263 20.2776C16.9345 20.2776 17.0144 17.0126 17.0144 15.9252C17.0144 12.2672 18.6084 11.6926 19.9263 11.6926ZM28.9893 15.9672C28.9893 14.1349 28.9026 8.13941 36.6312 8.13941C39.7336 8.13941 41.029 9.13639 41.029 9.13639L39.9878 12.4003C39.9878 12.4003 38.694 11.6803 37.0082 11.6803C34.849 11.6803 33.4713 12.9454 33.4713 15.1712L33.4737 16.7673C33.4737 18.9061 34.803 20.3338 37.0127 20.3338C38.5485 20.3338 39.964 19.607 39.964 19.607L41.0025 22.8027C41.0025 22.8027 39.818 23.806 36.6529 23.806C29.294 23.806 28.9894 18.4269 28.9894 15.9672H28.9893ZM66.2075 8.13371C70.394 8.13371 72.3396 11.3164 72.3396 15.8342C72.3396 21.5255 69.855 23.8034 66.205 23.8034C64.1167 23.8034 62.573 22.9151 61.7391 21.2572V23.5057L57.4989 23.504V0.886206L62.0009 0.489373V10.5417C62.6507 8.78303 64.786 8.13371 66.2076 8.13371H66.2075ZM64.9454 11.6926C63.1871 11.6926 62.0009 12.9322 62.0009 15.0406L61.9967 17.194C61.9941 18.6151 62.8182 20.2776 64.9454 20.2776C67.9372 20.2776 67.8573 17.0126 67.8573 15.9252C67.8573 12.2672 66.2634 11.6926 64.9454 11.6926ZM48.8403 8.14619C44.092 8.14619 41.5852 10.7627 41.5852 15.4126V16.2765C41.5852 22.3116 45.1055 23.8654 49.3024 23.8654C53.3818 23.8654 55.2283 22.7122 55.2283 22.7122L54.3859 19.6412C54.3859 19.6412 52.2139 20.5752 49.8422 20.5752C47.3836 20.5752 46.3262 19.9418 46.0552 17.5538H55.5882V15.0901C55.5882 10.0462 52.7748 8.14607 48.8402 8.14607L48.8403 8.14619ZM48.9547 11.2213C50.5984 11.2213 51.6634 12.24 51.6049 14.6025H46.0634C46.1595 12.116 47.3081 11.2214 48.9547 11.2214V11.2213ZM81.3163 8.12548C76.4402 8.12548 73.8731 10.9027 73.8731 15.8797C73.8731 22.7083 78.2982 23.8075 81.3245 23.8075C85.7548 23.8075 88.7023 21.3968 88.7023 15.9417C88.7023 10.2638 85.3882 8.12548 81.3163 8.12548ZM81.255 11.705C83.3991 11.705 84.2487 13.3268 84.2487 15.1729V16.7601C84.2487 18.9966 83.0599 20.2901 81.2468 20.2901C79.5512 20.2901 78.3595 19.0801 78.3595 16.7601V15.1729C78.3595 12.6987 79.7775 11.705 81.255 11.705ZM97.671 8.12548C92.7948 8.12548 90.2278 10.9027 90.2278 15.8797C90.2278 22.7083 94.6528 23.8075 97.6791 23.8075C102.109 23.8075 105.057 21.3968 105.057 15.9417C105.057 10.2638 101.743 8.12548 97.671 8.12548ZM97.6096 11.705C99.7538 11.705 100.603 13.3268 100.603 15.1729V16.7601C100.603 18.9966 99.4144 20.2901 97.6015 20.2901C95.9059 20.2901 94.7142 19.0801 94.7142 16.7601V15.1729C94.7142 12.6987 96.1322 11.705 97.6096 11.705ZM106.758 23.5041V0.886206L111.273 0.489373V15.6493L115.753 8.42556H120.521L115.848 15.9073L120.701 23.5041H115.919L111.273 16.1277V23.5041H106.758Z" fill="white"/>
</svg>
