<svg xmlns="http://www.w3.org/2000/svg" version="1.1" xmlns:xlink="http://www.w3.org/1999/xlink" width="55" height="29"><svg width="55" height="29" viewBox="0 0 55 29" fill="none" xmlns="http://www.w3.org/2000/svg">
<path d="M0.357625 13.6282C0.902146 5.42958 8.51499 -0.828534 17.1487 0.977639C22.4974 2.09648 26.6808 6.35054 27.7398 11.7271C29.495 20.6434 22.7401 28.4574 14.1649 28.4574C10.4786 28.4574 7.13586 27.0075 4.65602 24.6502C4.0525 24.0769 4.46673 23.0561 5.29826 23.0561C5.5318 23.0561 5.75735 23.1436 5.92698 23.3045C8.09707 25.3622 11.0323 26.6167 14.2607 26.5914C20.7501 26.5402 26.0663 21.2419 26.1572 14.7335C26.2512 8.01062 20.8454 2.53107 14.1642 2.53107C8.27899 2.53107 3.39367 6.78513 2.37592 12.3935C2.25915 13.0358 2.74835 13.6282 3.3992 13.6282H13.2288C13.7426 13.6282 14.1587 14.0462 14.1587 14.5609C14.1587 15.0763 13.742 15.4936 13.2288 15.4936H2.21674H1.36923C0.798896 15.4936 0.334271 15.0319 0.329354 14.4598C0.32874 14.3686 0.328125 14.286 0.328125 14.2188C0.328125 13.9038 0.336729 13.9377 0.357625 13.6282Z" fill="url(#paint0_linear_345_5967)"></path>
<path d="M20.1501 15.9361C20.8802 15.9361 21.4721 15.3425 21.4721 14.6101C21.4721 13.8778 20.8802 13.2842 20.1501 13.2842C19.42 13.2842 18.8281 13.8778 18.8281 14.6101C18.8281 15.3425 19.42 15.9361 20.1501 15.9361Z" fill="url(#paint1_linear_345_5967)"></path>
<path d="M42.5164 15.1689L52.8199 28.095C53.0067 28.3299 53.2907 28.4667 53.59 28.4667H53.598C54.4258 28.4667 54.8855 27.5051 54.3668 26.8578L45.0018 15.1689C44.7117 14.807 44.7117 14.2911 45.0024 13.9292L54.3687 2.25504C54.888 1.60777 54.4289 0.645508 53.6004 0.645508C53.3011 0.645508 53.0178 0.781741 52.831 1.01599L42.517 13.9329C42.2288 14.2941 42.2288 14.8076 42.5164 15.1689Z" fill="url(#paint2_linear_345_5967)"></path>
<path d="M41.0883 15.1689L30.7842 28.095C30.5974 28.3299 30.3134 28.4667 30.0141 28.4667H30.0061C29.1783 28.4667 28.7186 27.5051 29.2373 26.8578L38.6023 15.1689C38.8924 14.807 38.8924 14.2911 38.6017 13.9292L29.2354 2.25504C28.7161 1.60777 29.1752 0.645508 30.0037 0.645508C30.303 0.645508 30.5863 0.781741 30.7731 1.01599L41.0871 13.9323C41.3759 14.2941 41.3759 14.8076 41.0883 15.1689Z" fill="url(#paint3_linear_345_5967)"></path>
<defs>
<linearGradient id="SvgjsLinearGradient1103" x1="39.2363" y1="-16.3139" x2="5.74537" y2="24.6914" gradientUnits="userSpaceOnUse">
<stop stop-color="#00FFDD"></stop>
<stop offset="0.16" stop-color="#2BCAE4"></stop>
<stop offset="0.3903" stop-color="#6383EE"></stop>
<stop offset="0.5978" stop-color="#904BF5"></stop>
<stop offset="0.775" stop-color="#B123FA"></stop>
<stop offset="0.9148" stop-color="#C50AFE"></stop>
<stop offset="1" stop-color="#CC01FF"></stop>
</linearGradient>
<linearGradient id="SvgjsLinearGradient1102" x1="42.8548" y1="-13.3574" x2="9.36385" y2="27.6479" gradientUnits="userSpaceOnUse">
<stop stop-color="#00FFDD"></stop>
<stop offset="0.16" stop-color="#2BCAE4"></stop>
<stop offset="0.3903" stop-color="#6383EE"></stop>
<stop offset="0.5978" stop-color="#904BF5"></stop>
<stop offset="0.775" stop-color="#B123FA"></stop>
<stop offset="0.9148" stop-color="#C50AFE"></stop>
<stop offset="1" stop-color="#CC01FF"></stop>
</linearGradient>
<linearGradient id="SvgjsLinearGradient1101" x1="62.9424" y1="3.04844" x2="29.4514" y2="44.0537" gradientUnits="userSpaceOnUse">
<stop stop-color="#00FFDD"></stop>
<stop offset="0.16" stop-color="#2BCAE4"></stop>
<stop offset="0.3903" stop-color="#6383EE"></stop>
<stop offset="0.5978" stop-color="#904BF5"></stop>
<stop offset="0.775" stop-color="#B123FA"></stop>
<stop offset="0.9148" stop-color="#C50AFE"></stop>
<stop offset="1" stop-color="#CC01FF"></stop>
</linearGradient>
<linearGradient id="SvgjsLinearGradient1100" x1="48.7575" y1="-8.5382" x2="15.2665" y2="32.4671" gradientUnits="userSpaceOnUse">
<stop stop-color="#00FFDD"></stop>
<stop offset="0.16" stop-color="#2BCAE4"></stop>
<stop offset="0.3903" stop-color="#6383EE"></stop>
<stop offset="0.5978" stop-color="#904BF5"></stop>
<stop offset="0.775" stop-color="#B123FA"></stop>
<stop offset="0.9148" stop-color="#C50AFE"></stop>
<stop offset="1" stop-color="#CC01FF"></stop>
</linearGradient>
</defs>
</svg><style>@media (prefers-color-scheme: light) { :root { filter: none; } }
@media (prefers-color-scheme: dark) { :root { filter: none; } }
</style></svg>