<svg width="98" height="33" viewBox="0 0 98 33" fill="none" xmlns="http://www.w3.org/2000/svg">
<path d="M12.0557 0H12.9262C15.9482 0.0663981 18.9209 1.29476 21.056 3.4693C20.2677 4.28268 19.4629 5.06285 18.691 5.87623C17.492 4.78066 16.0467 3.93409 14.47 3.63529C12.1378 3.13731 9.62494 3.5855 7.67048 4.93006C5.53536 6.34102 4.09005 8.73135 3.778 11.2877C3.43309 13.8108 4.13932 16.4667 5.7653 18.4255C7.32558 20.3344 9.70706 21.5296 12.1707 21.6126C14.47 21.7454 16.8679 21.0316 18.5432 19.4048C19.8571 18.2595 20.4648 16.5165 20.6619 14.8234C17.9355 14.8234 15.2091 14.84 12.4827 14.8234V11.4039H23.9631C24.5543 15.0724 23.7003 19.2056 20.9411 21.8284C19.1016 23.6875 16.5559 24.7831 13.9609 24.9989C11.448 25.2479 8.85301 24.7665 6.61935 23.5381C3.94224 22.094 1.80712 19.6538 0.755982 16.7821C-0.229458 14.1428 -0.245882 11.1549 0.673862 8.49895C1.51149 6.07542 3.12104 3.93409 5.19046 2.44013C7.17776 0.962772 9.59209 0.149396 12.0557 0Z" fill="white"/>
<path d="M77.916 0.863281H81.4307V24.5674C80.2646 24.5674 79.0821 24.584 77.916 24.5508C77.9324 16.666 77.916 8.76464 77.916 0.863281Z" fill="white"/>
<path d="M31.7808 9.07987C33.9488 8.66488 36.2974 9.12966 38.0876 10.441C39.7136 11.603 40.8468 13.4289 41.1917 15.4208C41.6352 17.7281 41.0768 20.2513 39.5986 22.0772C38.0055 24.1189 35.3941 25.2145 32.8483 25.0485C30.5161 24.9157 28.2496 23.7371 26.87 21.8116C25.3097 19.6869 24.932 16.7654 25.786 14.2755C26.6401 11.603 29.0544 9.56125 31.7808 9.07987ZM32.2735 12.2338C31.3866 12.4661 30.5654 12.9807 29.9741 13.7111C28.381 15.6366 28.4796 18.7739 30.2369 20.5666C31.2388 21.5958 32.7498 22.0772 34.1458 21.795C35.4433 21.5626 36.5766 20.6828 37.2007 19.5209C38.2847 17.5456 37.9726 14.8233 36.3138 13.2795C35.2463 12.2835 33.686 11.8686 32.2735 12.2338Z" fill="white"/>
<path d="M49.1877 9.08011C51.6678 8.59873 54.3777 9.29591 56.2336 11.0555C59.2556 13.7944 59.5841 18.9236 57.0056 22.0776C55.4453 24.0695 52.916 25.1651 50.4195 25.0489C48.0381 24.9825 45.6894 23.7873 44.277 21.812C42.6838 19.6374 42.3389 16.6495 43.2422 14.1098C44.1456 11.5202 46.5106 9.5449 49.1877 9.08011ZM49.6805 12.234C48.7936 12.4664 47.9724 12.981 47.3811 13.6948C45.8044 15.5871 45.8701 18.6747 47.5618 20.484C48.5636 21.563 50.1239 22.0942 51.5692 21.7954C52.8503 21.5464 54 20.6832 54.6241 19.5212C55.6916 17.5293 55.3796 14.807 53.7043 13.2632C52.6368 12.2672 51.0765 11.8688 49.6805 12.234Z" fill="white"/>
<path d="M63.9551 10.0424C65.8438 8.84726 68.3567 8.51527 70.3933 9.54444C71.0338 9.82663 71.5594 10.308 72.0685 10.7894C72.0849 10.3412 72.0685 9.87643 72.0849 9.41164C73.1854 9.42824 74.2858 9.41164 75.4026 9.42824V24.069C75.3862 26.2767 74.8278 28.6172 73.2511 30.2274C71.5265 32.0035 68.8823 32.5513 66.5008 32.1861C63.9551 31.8043 61.7378 29.9286 60.7524 27.5549C61.7378 27.0735 62.7725 26.6917 63.7908 26.2435C64.3657 27.6047 65.5318 28.7666 66.9935 29.0322C68.4552 29.2978 70.1469 28.9326 71.0995 27.7043C72.1178 26.4427 72.1178 24.7164 72.0685 23.1726C71.313 23.9196 70.4425 24.5836 69.3914 24.8326C67.1085 25.4799 64.5956 24.6832 62.8382 23.1228C61.0644 21.5625 60.0133 19.1555 60.1118 16.7652C60.1611 14.0595 61.6721 11.4534 63.9551 10.0424ZM67.3548 12.1672C66.353 12.3332 65.4168 12.8975 64.7763 13.6777C63.2324 15.5369 63.2324 18.5082 64.7927 20.3341C65.6796 21.4131 67.1085 22.0107 68.4881 21.8613C69.7856 21.7285 70.9845 20.8985 71.6251 19.7531C72.7091 17.811 72.5284 15.1717 71.0667 13.4785C70.1633 12.4327 68.718 11.9182 67.3548 12.1672Z" fill="white"/>
<path d="M85.6504 10.8896C87.6213 9.03045 90.6597 8.39967 93.189 9.37904C95.5869 10.292 97.1143 12.5993 97.8863 14.9731C94.3222 16.467 90.7747 17.9444 87.2107 19.4383C87.7034 20.3845 88.4589 21.2477 89.4772 21.5963C90.9061 22.1109 92.6142 21.9283 93.8131 20.9655C94.2894 20.6003 94.6671 20.1189 95.0285 19.6541C95.9318 20.2683 96.8351 20.8659 97.7384 21.4801C96.4574 23.4222 94.3058 24.7834 91.99 24.9992C89.4279 25.3146 86.7015 24.3186 85.0427 22.2935C82.3163 19.1063 82.5791 13.7613 85.6504 10.8896ZM87.4077 13.9605C86.8493 14.7739 86.6194 15.7698 86.6358 16.7492C89.0173 15.7532 91.3988 14.7573 93.7803 13.7447C93.3861 12.8151 92.4335 12.2508 91.4645 12.1014C89.9042 11.8192 88.2782 12.6657 87.4077 13.9605Z" fill="white"/>
</svg>
