<svg width="90" height="141" viewBox="0 0 90 141" fill="none" xmlns="http://www.w3.org/2000/svg">
<path fill-rule="evenodd" clip-rule="evenodd" d="M85.5593 119.038C71.7322 116.723 60.283 108.895 51.2013 98.414C37.4865 82.5856 29.165 60.7073 26.2614 42.3887C24.4351 30.8759 27.2475 22.2106 28.0733 10.4603C28.1065 9.98446 27.7347 9.60113 27.2423 9.60441C26.7518 9.60654 26.3236 9.99578 26.2923 10.4705C25.4567 22.3583 22.6481 31.1241 24.4948 42.7717C27.4392 61.3456 35.8899 83.5237 49.7962 99.5747C59.1281 110.345 70.9185 118.357 85.1282 120.736C85.607 120.816 86.091 120.502 86.2101 120.033C86.3293 119.565 86.038 119.118 85.5593 119.038Z" fill="white"/>
<path fill-rule="evenodd" clip-rule="evenodd" d="M25.2549 7.9132C25.2497 7.95453 25.2213 8.22983 25.1727 8.45942C24.9766 9.41212 24.4796 11.0598 23.7294 13.1111C21.2049 19.9901 15.8271 31.385 8.88423 36.2528C8.48375 36.5337 8.36906 37.0629 8.62677 37.4353C8.88449 37.8078 9.4168 37.8839 9.81727 37.603C17.0412 32.5381 22.7218 20.7322 25.3468 13.5744C25.6977 12.6155 25.9973 11.7392 26.2366 10.9746C26.9131 13.2239 27.5277 15.4901 28.1171 17.771C29.8114 24.3378 32.6959 29.5726 37.1704 34.6419C37.4685 34.9813 38.0133 34.9973 38.3819 34.6775C38.7516 34.3594 38.8086 33.8231 38.5086 33.4848C34.203 28.6048 31.4222 23.5661 29.7905 17.2456C29.0196 14.2652 28.2043 11.3059 27.2727 8.38072C27.18 8.08959 26.9304 7.33627 26.8781 7.23733C26.58 6.6727 26.0213 6.81562 25.8992 6.8531C25.8401 6.87073 25.1168 7.13093 25.2549 7.9132ZM26.9636 7.56617C26.9593 7.54469 26.957 7.52207 26.9517 7.49878C26.9569 7.51733 26.9593 7.53995 26.9636 7.56617Z" fill="white"/>
</svg>
