<svg width="57" height="6" viewBox="0 0 57 6" fill="none" xmlns="http://www.w3.org/2000/svg">
<path d="M2.46393 0.651099H1.06944C0.934229 0.651099 0.824219 0.540756 0.824219 0.405139C0.824219 0.269522 0.934229 0.15918 1.06944 0.15918H4.91489C5.05009 0.15918 5.1601 0.269522 5.1601 0.405139C5.1601 0.540756 5.05009 0.651099 4.91489 0.651099H3.52101C3.3858 0.651099 3.27579 0.761441 3.27579 0.897058V5.29228C3.27579 5.4279 3.16578 5.53824 3.03057 5.53824H2.95375C2.81854 5.53824 2.70853 5.4279 2.70853 5.29228V0.897058C2.70915 0.761441 2.59914 0.651099 2.46393 0.651099Z" fill="#BCBEC0"/>
<path d="M9.85448 5.28895V5.29635C9.85448 5.43011 9.74631 5.53861 9.61295 5.53861H6.30403C6.17067 5.53861 6.0625 5.43011 6.0625 5.29635V0.402421C6.0625 0.268653 6.17067 0.160156 6.30403 0.160156H9.49864C9.632 0.160156 9.74017 0.268653 9.74017 0.402421V0.409818C9.74017 0.543586 9.632 0.652079 9.49864 0.652079H6.87129C6.73793 0.652079 6.62976 0.760572 6.62976 0.89434V2.32325C6.62976 2.45702 6.73793 2.56551 6.87129 2.56551H9.16184C9.29521 2.56551 9.40338 2.674 9.40338 2.80777C9.40338 2.94154 9.29521 3.05003 9.16184 3.05003H6.87129C6.73793 3.05003 6.62976 3.15853 6.62976 3.29229V4.80566C6.62976 4.93943 6.73793 5.04792 6.87129 5.04792H9.61356C9.74631 5.04669 9.85448 5.15518 9.85448 5.28895Z" fill="#BCBEC0"/>
<path d="M12.051 5.23097C11.6245 4.99549 11.2902 4.66878 11.0474 4.25145C10.8047 3.83412 10.6836 3.36624 10.6836 2.84905C10.6836 2.33185 10.8047 1.86459 11.0474 1.44664C11.2896 1.02931 11.6257 0.702598 12.0547 0.466501C12.4837 0.23102 12.9637 0.113281 13.4947 0.113281C13.8929 0.113281 14.2611 0.179856 14.5979 0.313008C14.8425 0.409789 15.0607 0.538623 15.2518 0.700131C15.3679 0.798761 15.3784 0.974448 15.2708 1.08233L15.269 1.08418C15.1744 1.17911 15.0244 1.18219 14.9205 1.09712C14.5327 0.779036 14.0626 0.619377 13.5101 0.619377C13.086 0.619377 12.7007 0.716774 12.3534 0.91157C12.0062 1.10637 11.7339 1.37267 11.5379 1.71048C11.3412 2.04891 11.2429 2.42802 11.2429 2.84781C11.2429 3.26761 11.3412 3.64672 11.5379 3.98515C11.7345 4.32296 12.0062 4.58926 12.3534 4.78405C12.7007 4.97885 13.086 5.07625 13.5101 5.07625C14.0656 5.07625 14.5358 4.91597 14.9205 4.59481C15.0244 4.50789 15.175 4.51035 15.2708 4.60652C15.3784 4.7144 15.3679 4.89008 15.2518 4.98871C15.06 5.15084 14.8412 5.28153 14.5942 5.38016C14.2543 5.51577 13.8856 5.58358 13.4873 5.58358C12.9563 5.58481 12.4776 5.46645 12.051 5.23097Z" fill="#BCBEC0"/>
<path d="M21.1456 0.44064V5.25813C21.1456 5.41285 21.0202 5.53861 20.866 5.53861C20.7117 5.53861 20.5863 5.41285 20.5863 5.25813V3.3373C20.5863 3.18257 20.461 3.05682 20.3067 3.05682H17.5103C17.3561 3.05682 17.2307 3.18257 17.2307 3.3373V5.25813C17.2307 5.41285 17.1053 5.53861 16.9511 5.53861H16.9437C16.7894 5.53861 16.6641 5.41285 16.6641 5.25813V0.44064C16.6641 0.285913 16.7894 0.160156 16.9437 0.160156H16.9511C17.1053 0.160156 17.2307 0.285913 17.2307 0.44064V2.27702C17.2307 2.43174 17.3561 2.5575 17.5103 2.5575H20.3067C20.461 2.5575 20.5863 2.43174 20.5863 2.27702V0.44064C20.5863 0.285913 20.7117 0.160156 20.866 0.160156C21.0208 0.160156 21.1456 0.285913 21.1456 0.44064Z" fill="#BCBEC0"/>
<path d="M27.3755 0.441002V5.25849C27.3755 5.41322 27.2501 5.53897 27.0958 5.53897H27.0436C26.9582 5.53897 26.8776 5.49952 26.8242 5.43294L23.7537 1.54566C23.6572 1.42361 23.4612 1.49203 23.4612 1.64799V5.25911C23.4612 5.41383 23.3358 5.53959 23.1815 5.53959H23.1742C23.0199 5.53959 22.8945 5.41383 22.8945 5.25911V0.441615C22.8945 0.286888 23.0199 0.161135 23.1742 0.161135H23.227C23.3124 0.161135 23.393 0.199973 23.4458 0.267165L26.5243 4.15567C26.6207 4.27773 26.8168 4.20931 26.8168 4.05335V0.441615C26.8168 0.286888 26.9422 0.161135 27.0964 0.161135C27.2501 0.160519 27.3755 0.286275 27.3755 0.441002Z" fill="#BCBEC0"/>
<path d="M30.0233 5.22764C29.5918 4.98969 29.2544 4.66298 29.0123 4.24811C28.7695 3.83325 28.6484 3.36722 28.6484 2.84941C28.6484 2.33222 28.7701 1.86618 29.0123 1.45132C29.2544 1.03645 29.5918 0.709743 30.0233 0.47118C30.4547 0.233233 30.9359 0.114258 31.4669 0.114258C31.9979 0.114258 32.4767 0.232001 32.9032 0.467481C33.3297 0.703578 33.6653 1.02967 33.9105 1.44762C34.1557 1.86495 34.2786 2.33283 34.2786 2.85002C34.2786 3.36722 34.1563 3.8351 33.9105 4.25243C33.6653 4.66976 33.3297 4.99647 32.9032 5.23196C32.4767 5.46744 31.9979 5.58579 31.4669 5.58579C30.9359 5.58579 30.4547 5.46559 30.0233 5.22764ZM32.8903 4.60812C33.0261 4.50332 33.1484 4.38065 33.2523 4.24441C33.5583 3.84249 33.7114 3.37709 33.7114 2.84941C33.7114 2.31804 33.5559 1.84892 33.2443 1.44454C33.1392 1.30831 33.0163 1.18563 32.8792 1.08207C32.4742 0.775084 32.0028 0.620975 31.4663 0.620975C31.0422 0.620975 30.6581 0.717138 30.3133 0.908852C29.9686 1.10118 29.6975 1.36749 29.5015 1.70776C29.3048 2.04865 29.2065 2.429 29.2065 2.84879C29.2065 3.26859 29.3048 3.64955 29.5015 3.98983C29.6981 4.33072 29.9686 4.5964 30.3133 4.78873C30.6581 4.98106 31.0422 5.07661 31.4663 5.07661C32.0077 5.07784 32.4828 4.92127 32.8903 4.60812Z" fill="#BCBEC0"/>
<path d="M35.7927 0.160156H35.8689C36.0041 0.160156 36.1141 0.270502 36.1141 0.406119V4.80073C36.1141 4.93635 36.2241 5.04669 36.3594 5.04669H38.8718C39.007 5.04669 39.117 5.15703 39.117 5.29265C39.117 5.42826 39.007 5.53861 38.8718 5.53861H35.7921C35.6569 5.53861 35.5469 5.42826 35.5469 5.29265V0.406119C35.5475 0.270502 35.6569 0.160156 35.7927 0.160156Z" fill="#BCBEC0"/>
<path d="M40.8514 5.22764C40.4199 4.98969 40.0825 4.66298 39.8404 4.24811C39.5976 3.83325 39.4766 3.36722 39.4766 2.84941C39.4766 2.33222 39.5983 1.86618 39.8404 1.45132C40.0832 1.03645 40.4199 0.709743 40.8514 0.47118C41.2828 0.233233 41.764 0.114258 42.295 0.114258C42.826 0.114258 43.3048 0.232001 43.7313 0.467481C44.1578 0.703578 44.4934 1.02967 44.7386 1.44762C44.9838 1.86495 45.1068 2.33283 45.1068 2.85002C45.1068 3.36722 44.9845 3.8351 44.7386 4.25243C44.4934 4.66976 44.1578 4.99647 43.7313 5.23196C43.3048 5.46744 42.826 5.58579 42.295 5.58579C41.7647 5.58518 41.2828 5.46559 40.8514 5.22764ZM43.719 4.60812C43.8549 4.50332 43.9772 4.38065 44.081 4.24441C44.3871 3.84249 44.5401 3.37709 44.5401 2.84941C44.5401 2.31804 44.3846 1.84892 44.073 1.44454C43.9679 1.30831 43.845 1.18563 43.708 1.08207C43.303 0.775084 42.8316 0.620975 42.295 0.620975C41.871 0.620975 41.4869 0.717138 41.1421 0.908852C40.7973 1.10118 40.5263 1.36749 40.3302 1.70776C40.1336 2.04865 40.0352 2.429 40.0352 2.84879C40.0352 3.26859 40.1336 3.64955 40.3302 3.98983C40.5269 4.33072 40.7973 4.5964 41.1421 4.78873C41.4869 4.98106 41.871 5.07661 42.295 5.07661C42.8365 5.07784 43.3109 4.92127 43.719 4.60812Z" fill="#BCBEC0"/>
<path d="M50.4148 2.84905H50.4456C50.5875 2.84905 50.7025 2.96432 50.7025 3.10672V4.78036C50.7025 4.85679 50.6699 4.93077 50.6103 4.97824C50.3804 5.16132 50.1149 5.30495 49.8138 5.40789C49.4714 5.52563 49.1113 5.58481 48.7333 5.58481C48.1974 5.58481 47.7144 5.46707 47.2854 5.23097C46.8564 4.99549 46.519 4.66878 46.2744 4.25145C46.0292 3.83412 45.9062 3.36624 45.9062 2.84905C45.9062 2.33185 46.0286 1.86459 46.2744 1.44664C46.5196 1.02931 46.8564 0.702598 47.2854 0.466501C47.7144 0.23102 48.1993 0.113281 48.7407 0.113281C49.1494 0.113281 49.5249 0.178624 49.8666 0.309309C50.1155 0.404241 50.3362 0.532461 50.5285 0.694585C50.6447 0.791983 50.6564 0.967052 50.5507 1.07555C50.4572 1.17171 50.3079 1.17664 50.2028 1.0928C49.8089 0.777802 49.3295 0.620611 48.7634 0.620611C48.3296 0.620611 47.9374 0.716775 47.5877 0.908488C47.2374 1.10082 46.9633 1.36712 46.7642 1.7074C46.5651 2.04829 46.4655 2.42863 46.4655 2.84843C46.4655 3.26823 46.5651 3.64734 46.7642 3.98576C46.9633 4.32357 47.2368 4.58988 47.5841 4.78467C47.9313 4.97947 48.3222 5.07686 48.7561 5.07686C49.249 5.07686 49.6749 4.96652 50.0332 4.74522C50.11 4.69775 50.1579 4.61392 50.1579 4.5233V3.10549C50.1579 2.96432 50.2729 2.84905 50.4148 2.84905Z" fill="#BCBEC0"/>
<path d="M54.1395 3.74687V5.29537C54.1395 5.42913 54.0313 5.53763 53.8979 5.53763H53.8223C53.689 5.53763 53.5808 5.42913 53.5808 5.29537V3.74687C53.5808 3.70248 53.5685 3.65871 53.5452 3.6205L51.6608 0.528427C51.5625 0.36692 51.678 0.15918 51.8673 0.15918H51.9054C51.9896 0.15918 52.0677 0.202947 52.1119 0.275071L53.673 2.83947C53.767 2.99419 53.9913 2.99419 54.0854 2.83947L55.647 0.275071C55.6907 0.202947 55.7693 0.15918 55.8535 0.15918C56.0422 0.15918 56.1584 0.366303 56.06 0.528427L54.1757 3.6205C54.1517 3.65871 54.1395 3.70248 54.1395 3.74687Z" fill="#BCBEC0"/>
</svg>
