<svg width="68" height="186" viewBox="0 0 68 186" fill="none" xmlns="http://www.w3.org/2000/svg">
<path fill-rule="evenodd" clip-rule="evenodd" d="M11.7185 0.493885C1.65521 16.5429 -0.92399 39.0602 1.95226 62.2872C6.25397 96.9908 22.7085 133.266 44.1309 151.738C44.577 152.113 45.2461 152.062 45.6212 151.626C46.0064 151.18 45.9558 150.521 45.5097 150.136C24.4219 131.948 8.28164 96.2 4.05395 62.0236C1.23852 39.3238 3.66864 17.3033 13.513 1.61923C13.8273 1.12245 13.6753 0.473652 13.1785 0.159363C12.6918 -0.144788 12.0328 -0.00289529 11.7185 0.493885Z" fill="white"/>
<path fill-rule="evenodd" clip-rule="evenodd" d="M62.3222 179.966C50.4603 168.631 41.1938 157.479 25.0129 150.939C24.4655 150.727 23.847 150.98 23.6341 151.527C23.4111 152.065 23.6747 152.683 24.212 152.896C42.015 160.094 51.2815 173.011 65.1204 185.461C65.8706 186.13 66.4992 185.714 66.6411 185.602C66.854 185.44 67.1379 185.116 67.0365 184.548C67.0162 184.437 66.9452 184.224 66.8032 183.94C66.5194 183.402 65.8503 182.358 65.5968 181.861C64.877 180.422 64.1978 178.972 63.4779 177.532C61.4199 173.416 59.4124 169.29 57.7092 165.022C51.3118 149.064 45.9791 136.056 52.5894 119.531C52.8124 118.983 52.5487 118.375 52.0013 118.152C51.4639 117.939 50.8455 118.203 50.6326 118.74C43.7892 135.833 49.1322 149.307 55.7424 165.812C57.476 170.131 59.5037 174.318 61.5821 178.475C61.8355 178.972 62.0788 179.469 62.3222 179.966Z" fill="white"/>
</svg>
