<svg width="124" height="31" viewBox="0 0 124 31" fill="none" xmlns="http://www.w3.org/2000/svg">
<path d="M13.3152 0.212947C11.7144 0.394263 9.31324 1.14742 7.94704 1.90058C4.27625 3.89505 1.79226 7.00531 0.550264 11.1477C0.301864 11.9566 0.0120652 14.1603 0.0258652 15.1924C0.0258652 16.099 0.301864 18.3166 0.467464 18.8466C0.550264 19.0977 0.729663 19.6974 0.881463 20.1577C1.12986 20.9387 2.33046 23.3935 2.53746 23.5608C2.57886 23.6027 2.79966 23.8816 3.00666 24.2024C3.51726 24.9695 4.85585 26.3364 5.86325 27.1174C6.63605 27.7171 8.81644 28.9864 9.09244 29.0003C9.16144 29.0003 9.17524 28.4703 9.13384 27.7729C9.03724 26.2248 9.32704 24.1187 9.94804 21.9708C10.0584 21.6082 10.1412 21.134 10.1412 20.9248C10.1412 20.7156 10.1964 20.4924 10.2654 20.4227C10.3344 20.339 10.4586 19.9345 10.5276 19.5161C10.6104 19.0977 10.7484 18.4561 10.845 18.0935C10.983 17.5495 10.9692 17.3403 10.776 16.7545C10.5 15.8619 10.4862 14.4114 10.7622 13.714C11.4108 12.0543 12.1284 11.4266 13.3428 11.4266C14.8056 11.4266 15.5094 12.5424 15.2334 14.4114C15.1092 15.2622 14.7642 16.6011 14.5434 17.0195C14.4882 17.145 14.3916 17.4937 14.3502 17.7866C14.295 18.0935 14.1846 18.5258 14.1156 18.7629C13.9224 19.3069 14.295 20.3669 14.7918 20.7714C15.261 21.1479 16.2408 21.2595 17.1378 21.0503C17.7726 20.9108 18.0348 20.7435 18.6972 20.1019C19.4838 19.3208 20.0772 18.4143 20.0772 17.9819C20.0772 17.8564 20.1462 17.689 20.229 17.6053C20.6154 17.2148 20.8224 14.1743 20.5326 12.8911C20.2152 11.4824 19.2354 10.1016 17.9658 9.29268C16.6962 8.46979 14.0742 8.23268 12.4596 8.79058C11.328 9.1811 10.3206 9.83663 9.67204 10.6037C9.09244 11.2872 8.48524 12.4029 8.48524 12.7935C8.48524 12.9329 8.41624 13.1143 8.33344 13.1979C8.25064 13.2816 8.15404 13.8116 8.11264 14.3835C8.04364 15.2343 8.09884 15.6248 8.34724 16.4616C8.51284 17.0335 8.81644 17.7029 8.99584 17.954C9.36844 18.4561 9.36844 18.6514 9.02344 19.9903C8.92684 20.3529 8.76124 20.6877 8.66464 20.7295C7.79524 21.0643 6.02885 18.9582 5.43545 16.8661C5.21465 16.0711 5.20085 13.2398 5.42165 12.4029C5.51825 12.0543 5.68385 11.58 5.79425 11.329C5.90465 11.0919 6.00125 10.8548 6.00125 10.799C6.00125 10.7432 6.27725 10.269 6.62225 9.75294C8.41624 7.01926 11.328 5.56873 15.0126 5.56873C15.8544 5.56873 16.7238 5.62452 16.9584 5.69426C18.8628 6.294 19.3734 6.48926 20.1186 6.93558C21.5676 7.81426 22.6164 9.01373 23.6652 11.0222C23.7342 11.1477 23.8308 11.4824 23.8722 11.7614C23.9274 12.0403 24.024 12.3053 24.093 12.3472C24.162 12.389 24.2172 13.2956 24.2172 14.3695C24.2172 16.3082 24.0792 17.0893 23.4996 18.6793C22.851 20.4227 21.1812 22.3474 19.6632 23.1006C18.7938 23.519 17.1654 23.9793 16.5168 23.9793C15.6474 23.9793 13.9362 23.254 13.467 22.6682C13.2462 22.4032 13.0392 22.5008 13.0392 22.8774C13.0392 23.0169 12.984 23.254 12.9012 23.3935C12.8322 23.519 12.708 23.9095 12.639 24.2582C12.2388 26.0993 11.673 27.5916 10.8036 28.9864C10.5414 29.4187 10.7622 29.6698 11.4798 29.7674C11.8386 29.8232 12.3216 29.9208 12.5424 29.9906C13.0944 30.1719 16.089 30.144 17.0964 29.9627C18.0072 29.7953 19.4838 29.3769 20.1462 29.0979C24.3138 27.3685 27.474 23.8537 28.8402 19.3766C29.5716 16.9916 29.613 14.2161 28.9506 11.4266C28.7298 10.52 28.6608 10.3108 28.0674 8.9161C27.2118 6.87979 25.2798 4.49479 23.3202 3.03031C21.6366 1.77505 19.9806 1.04979 17.4 0.422158C16.6824 0.254789 14.1294 0.115316 13.3152 0.212947ZM50.1197 5.24795C49.5815 5.33163 48.7259 6.22426 48.5051 6.92163C48.2705 7.68873 48.5051 8.51163 49.1675 9.1532C50.6303 10.5898 53.1695 9.23689 52.8521 7.17268C52.6589 5.86163 51.4721 5.02479 50.1197 5.24795ZM35.0778 6.07084C34.9536 6.21031 34.9536 23.0308 35.0916 23.2261C35.1606 23.3377 35.754 23.3795 36.9132 23.3656L38.6382 23.3516L38.7072 20.5203C38.7624 18.219 38.8176 17.6611 38.9832 17.5635C39.0936 17.4937 40.032 17.424 41.067 17.424C43.3301 17.424 44.2823 17.2566 45.3173 16.6987C46.6697 15.9595 47.4563 14.8995 47.8841 13.2119C48.1463 12.1519 48.1463 11.3848 47.8703 10.2969C47.6219 9.32057 47.5115 9.08347 46.9181 8.28847C46.1867 7.29821 45.4415 6.75426 44.2271 6.32189C43.5509 6.09873 42.9851 6.05689 39.3282 6.01505C37.0512 5.98716 35.133 6.01505 35.0778 6.07084ZM42.6539 9.54373C43.5785 9.83663 44.0339 10.255 44.2409 11.0082C44.5031 11.9985 44.3099 12.919 43.7303 13.4769C43.0955 14.0766 42.5297 14.2161 40.6805 14.2161C39.4662 14.2161 39.0936 14.1743 38.928 13.9929C38.7486 13.8256 38.7072 13.4211 38.7072 11.8311C38.7072 9.32057 38.6934 9.33452 40.6115 9.33452C41.4395 9.33452 42.2399 9.41821 42.6539 9.54373ZM66.8591 8.72084C66.8591 9.68321 66.7901 10.5898 66.7211 10.7432C66.6245 10.9245 66.4313 11.0082 66.1001 11.0082C65.8517 11.0082 65.6171 11.064 65.5895 11.1477C65.5757 11.2174 65.5757 11.7056 65.6171 12.2216C65.6861 13.1422 65.6999 13.1561 66.1139 13.2537C66.3485 13.2956 66.6107 13.3793 66.6935 13.435C66.8177 13.5048 66.8591 14.6066 66.8591 17.3961C66.8591 21.1479 66.8729 21.2874 67.1765 21.8453C67.8113 23.0308 68.8049 23.4493 70.8197 23.3935L72.1721 23.3516L72.2135 21.9987L72.2549 20.6319H71.9099C71.3855 20.6319 70.6127 20.2135 70.5299 19.8787C70.4885 19.7114 70.4471 18.2329 70.4471 16.5732C70.4471 14.2858 70.4885 13.5187 70.6265 13.4072C70.7231 13.3235 71.1095 13.2398 71.4821 13.2119L72.1721 13.17V11.0779L71.4131 11.0361C70.9991 11.0082 70.6127 10.9106 70.5575 10.8269C70.5023 10.7293 70.4471 9.82268 70.4471 8.80452V6.96347H66.8591V8.72084ZM118.154 7.04715C118.098 7.10294 118.057 7.98163 118.057 8.99979C118.057 10.9803 118.043 11.0082 117.284 11.0082C116.939 11.0082 116.939 11.0222 116.981 12.0822C117.022 13.1422 117.036 13.17 117.395 13.2119C117.588 13.2398 117.822 13.3374 117.891 13.4211C117.974 13.5187 118.057 15.2064 118.098 17.3543C118.14 19.4185 118.209 21.3014 118.264 21.5245C118.43 22.1382 119.285 22.9193 120.099 23.1843C121.01 23.4911 123.329 23.519 123.563 23.2261C123.674 23.1006 123.715 22.5985 123.687 21.8732L123.646 20.7016L123.163 20.6179C122.639 20.5343 122.045 20.2553 121.893 20.0182C121.838 19.9345 121.783 18.4143 121.783 16.6429C121.783 13.0027 121.7 13.2398 122.901 13.2398C123.687 13.2398 123.756 13.1003 123.687 11.8311L123.646 11.0779L122.749 11.0082L121.852 10.9385L121.783 8.98584L121.714 7.03321L119.975 6.99137C119.023 6.97742 118.209 7.00531 118.154 7.04715ZM60.0281 10.6735C59.3519 10.8548 58.5653 11.315 58.0409 11.859C57.4061 12.5285 57.2405 12.4866 57.1715 11.6358L57.1301 11.0779H53.6801V23.3516L55.4189 23.3795C57.1301 23.4214 57.1715 23.4074 57.2543 23.1006C57.2957 22.9332 57.3371 21.1619 57.3371 19.1535C57.3371 15.1785 57.3509 15.0669 58.1651 14.2858C58.5239 13.9372 58.7171 13.8674 59.4899 13.8256L60.3869 13.7698L60.9251 14.3416C61.5599 15.0111 61.4909 14.3695 61.5461 20.1437C61.5599 21.6779 61.5737 23.0308 61.5875 23.1703C61.6151 23.3656 61.8359 23.3935 63.3815 23.3656L65.1341 23.3516V13.5606L64.7339 12.7656C64.0439 11.3848 62.9813 10.7293 61.3529 10.6456C60.7733 10.6316 60.1799 10.6316 60.0281 10.6735ZM77.278 10.6735C75.7877 11.0779 75.0701 11.4824 74.1455 12.4029C72.9035 13.6722 72.3377 15.1506 72.3377 17.145C72.3515 20.6458 74.5181 23.24 77.7197 23.5469C80.452 23.8119 82.5634 23.0029 83.9158 21.1758C84.109 20.9108 84.523 20.06 84.523 19.9066C84.523 19.8508 83.7226 19.795 82.7566 19.795H80.9902L80.5762 20.2274C80.0933 20.7295 79.417 21.0503 78.796 21.0503C78.175 21.0503 77.2229 20.604 76.7813 20.1298C76.4501 19.7532 75.9671 18.6653 75.9671 18.2887C75.9671 18.1632 76.9744 18.1214 80.2174 18.1214C82.5496 18.1214 84.523 18.0656 84.6196 18.0098C84.8266 17.8703 84.6334 15.6527 84.3298 14.8437C83.7088 13.1561 82.5358 11.7335 81.349 11.2314C81.0041 11.0919 80.6038 10.9106 80.4658 10.8408C80.176 10.6874 77.7197 10.5619 77.278 10.6735ZM79.969 13.7279C80.5072 14.1045 80.9764 14.9972 80.9074 15.4993C80.866 15.82 80.8385 15.82 78.5063 15.8619C75.8153 15.9037 75.8015 15.8898 76.2293 14.8856C76.5329 14.1882 77.1401 13.5606 77.7058 13.3793C78.3544 13.17 79.4033 13.3374 79.969 13.7279ZM97.702 10.6735C96.1012 11.1058 94.9834 11.8172 94.114 12.919C93.769 13.3653 93.493 13.7837 93.493 13.8674C93.493 13.9372 93.3964 14.1882 93.2722 14.4253C93.148 14.6485 92.9686 15.3458 92.872 15.9735C92.389 18.9582 93.7138 21.7477 96.1978 23.0029L97.15 23.4911H99.151C101.221 23.4911 101.4 23.4493 102.67 22.7658C103.595 22.2637 105.113 20.3111 104.878 19.9206C104.823 19.8508 104.036 19.795 103.112 19.795H101.414L101.069 20.1995C99.6892 21.7756 97.1086 20.9666 96.5566 18.7769C96.4738 18.484 96.4738 18.2329 96.5428 18.1772C96.6118 18.1353 98.5852 18.1074 100.945 18.1214C104.312 18.1214 105.223 18.0935 105.237 17.954C105.361 16.2106 104.533 13.6303 103.498 12.5145C102.918 11.8869 101.911 11.1895 101.414 11.064C101.193 11.0082 100.945 10.9106 100.848 10.8408C100.655 10.6874 98.1298 10.5619 97.702 10.6735ZM99.8548 13.3932C100.476 13.6164 101.193 14.3974 101.304 14.9972C101.469 15.9037 101.483 15.9037 98.9164 15.8619C96.6118 15.82 96.598 15.82 96.5566 15.4993C96.5014 15.1087 96.9844 14.1464 97.3984 13.7837C97.9918 13.2816 99.0268 13.1143 99.8548 13.3932ZM109.708 10.6735C106.879 11.3569 105.858 12.375 105.844 14.495C105.844 16.7824 106.976 17.7448 110.329 18.3445C112.634 18.749 113.296 19.1116 113.268 19.9903C113.255 20.6179 112.827 21.0224 111.971 21.2037C110.895 21.4408 110.053 21.1758 109.377 20.4087L108.839 19.795H107.169C105.816 19.795 105.499 19.8369 105.499 19.9903C105.499 20.3948 106.051 21.4548 106.506 21.9848C106.934 22.445 107.265 22.6682 108.563 23.2958C108.687 23.3656 109.363 23.4771 110.039 23.5608C111.295 23.7143 113.475 23.5748 114.027 23.2958C114.152 23.24 114.51 23.0587 114.814 22.9193C115.601 22.5427 116.346 21.6919 116.622 20.8829C116.925 19.9624 116.843 18.6793 116.415 17.7866C115.904 16.7406 114.552 15.9874 112.537 15.6248C109.943 15.1645 109.901 15.1506 109.487 14.7461C108.99 14.23 108.99 14.0487 109.487 13.4908C109.887 13.0445 109.915 13.0306 111.019 13.0306C112.123 13.0306 112.151 13.0445 112.551 13.4908C112.772 13.7419 112.951 14.0348 112.951 14.1464C112.951 14.3137 113.241 14.3556 114.676 14.3556C116.58 14.3556 116.525 14.3974 116.194 13.4072C115.587 11.6498 114.027 10.7572 111.433 10.6595C110.633 10.6316 109.86 10.6316 109.708 10.6735ZM91.354 10.9664C90.7468 11.1756 89.905 11.8729 89.6428 12.375C89.3806 12.8772 89.146 12.6679 89.077 11.8311L89.008 11.0779H85.558L85.5166 16.9358C85.5028 20.1577 85.5166 22.9332 85.558 23.1145C85.627 23.4214 85.6684 23.4214 87.3244 23.3935C88.2766 23.3795 89.0494 23.2958 89.1046 23.2121C89.1598 23.1424 89.215 21.664 89.215 19.9345C89.215 17.2008 89.2426 16.7127 89.4772 16.099C89.9602 14.8298 90.9952 14.0766 92.2924 14.0766C92.6512 14.0766 92.803 14.0069 92.8444 13.8256C92.941 13.4211 92.9548 11.5382 92.872 11.1198C92.7892 10.785 92.7202 10.7293 92.3476 10.7432C92.0992 10.7572 91.6576 10.8548 91.354 10.9664ZM48.8501 11.1756C48.8087 11.2732 48.7949 14.0208 48.8087 17.2845L48.8501 23.2121L50.4923 23.2819C51.4859 23.3237 52.2035 23.2958 52.3139 23.2121C52.4657 23.1006 52.5071 21.915 52.5071 17.1729C52.5209 13.9372 52.4795 11.2174 52.4381 11.1477C52.3001 10.9385 48.9191 10.9664 48.8501 11.1756Z" fill="white"/>
</svg>
