<svg width="73" height="73" viewBox="0 0 73 73" fill="none" xmlns="http://www.w3.org/2000/svg">
<path d="M43.2944 41.4193C41.3368 43.6507 38.9532 45.4764 36.2705 46.8V54.4072C36.2705 55.0797 36.0033 55.7247 35.5278 56.2002C35.0522 56.6757 34.4072 56.9429 33.7347 56.9429H18.5205C17.8479 56.9429 17.203 56.6757 16.7274 56.2002C16.2519 55.7247 15.9847 55.0797 15.9847 54.4072V46.8C10.6412 44.1328 6.55615 39.4772 4.60619 33.8323C2.65624 28.1874 2.99678 22.003 5.55475 16.6063C8.11271 11.2097 12.6843 7.03073 18.2883 4.96634C23.8924 2.90195 30.0824 3.11661 35.53 5.56426M15.9847 69.4643H36.2705" stroke="url(#paint0_linear_768_6307)" stroke-width="6" stroke-linecap="round" stroke-linejoin="round"/>
<path d="M38.1671 20.9506C36.387 20.6412 36.387 18.0852 38.1671 17.7759C41.3178 17.2248 44.2335 15.7492 46.5435 13.5368C48.8535 11.3243 50.4534 8.47493 51.1398 5.35088L51.2463 4.85388C51.6317 3.0941 54.137 3.08395 54.5377 4.83867L54.6695 5.41174C55.3779 8.5237 56.9909 11.3566 59.3056 13.554C61.6202 15.7513 64.5332 17.215 67.6777 17.7607C69.4679 18.0751 69.4679 20.6412 67.6777 20.9557C64.5341 21.5023 61.6223 22.9663 59.3086 25.1636C56.9949 27.3609 55.3826 30.1933 54.6746 33.3046L54.5427 33.8777C54.1421 35.6324 51.6368 35.6222 51.2514 33.8625L51.1499 33.3705C50.4628 30.2451 48.8614 27.3947 46.5495 25.1821C44.2376 22.9696 41.3197 21.4999 38.1671 20.9506Z" stroke="url(#paint1_linear_768_6307)" stroke-width="6" stroke-linecap="round" stroke-linejoin="round"/>
<defs>
<linearGradient id="paint0_linear_768_6307" x1="3.35547" y1="49.4931" x2="41.5073" y2="49.0505" gradientUnits="userSpaceOnUse">
<stop offset="0.5" stop-color="#9F36F8"/>
<stop offset="1" stop-color="#21D6E2"/>
</linearGradient>
<linearGradient id="paint1_linear_768_6307" x1="36.832" y1="25.5942" x2="67.5726" y2="24.9957" gradientUnits="userSpaceOnUse">
<stop offset="0.5" stop-color="#9F36F8"/>
<stop offset="1" stop-color="#21D6E2"/>
</linearGradient>
</defs>
</svg>
