<svg width="96" height="32" viewBox="0 0 96 32" fill="none" xmlns="http://www.w3.org/2000/svg">
<path d="M91.5092 6.15067H87.344V0.319336H78.198L73.9919 6.15067H66.5178L64.0187 8.64981V6.15067H58.1873V0.319336H39.8603V6.15067H14.0774L9.87056 0.319336H0.707031V20.3125L12.3697 31.9751H24.0324V28.643L27.3646 31.9751H49.8568V28.643L53.189 31.9751H64.0187V28.643L67.3508 31.9751H88.177L95.6745 24.4777V10.3159L91.5092 6.15067ZM14.8688 14.4811H9.03751V16.1472H14.8688V22.8116H5.70532L2.37313 19.4794V1.98543H9.03751V7.81676H14.8688V14.4811ZM39.8603 22.8116H19.8671L16.5349 19.4794V7.81676H23.1993V16.1472H24.8654V7.81676H31.5298V16.1472H33.1959V7.81676H39.8603V22.8116ZM48.1907 22.8116H41.5264V7.81676H48.1907V22.8116ZM48.1907 6.15067H41.5264V1.98543H48.1907V6.15067ZM62.3526 14.4811H56.5212V16.1472H62.3526V22.8116H53.189L49.8568 19.4794V1.98543H56.5212V7.81676H62.3526V14.4811ZM77.3474 14.4811H70.683V16.1472H77.3474V22.8116H67.3508L64.0187 19.4794V11.149L67.3508 7.81676H77.3474V14.4811ZM94.0084 22.8116H87.344V14.4811H85.6779V22.8116H79.0135V1.98543H85.6779V7.81676H90.6762L94.0084 11.149V22.8116Z" fill="white"/>
</svg>
