<svg width="72" height="71" viewBox="0 0 72 71" fill="none" xmlns="http://www.w3.org/2000/svg">
<path d="M62.8177 59.167H59.8594V14.792C59.8594 14.0074 59.5477 13.2549 58.9929 12.7001C58.4381 12.1453 57.6856 11.8337 56.901 11.8337C56.1164 11.8337 55.364 12.1453 54.8092 12.7001C54.2544 13.2549 53.9427 14.0074 53.9427 14.792V59.167H48.026V26.6253C48.026 25.8407 47.7144 25.0883 47.1596 24.5335C46.6048 23.9787 45.8523 23.667 45.0677 23.667C44.2831 23.667 43.5306 23.9787 42.9759 24.5335C42.4211 25.0883 42.1094 25.8407 42.1094 26.6253V59.167H36.1927V38.4587C36.1927 37.6741 35.881 36.9216 35.3262 36.3668C34.7714 35.812 34.019 35.5003 33.2344 35.5003C32.4498 35.5003 31.6973 35.812 31.1425 36.3668C30.5877 36.9216 30.276 37.6741 30.276 38.4587V59.167H24.3594V50.292C24.3594 49.5074 24.0477 48.7549 23.4929 48.2001C22.9381 47.6453 22.1856 47.3337 21.401 47.3337C20.6164 47.3337 19.864 47.6453 19.3092 48.2001C18.7544 48.7549 18.4427 49.5074 18.4427 50.292V59.167H12.526V8.87533C12.526 8.09073 12.2144 7.33826 11.6596 6.78347C11.1048 6.22867 10.3523 5.91699 9.56771 5.91699C8.78311 5.91699 8.03065 6.22867 7.47585 6.78347C6.92106 7.33826 6.60938 8.09073 6.60938 8.87533V62.1253C6.60938 62.9099 6.92106 63.6624 7.47585 64.2172C8.03065 64.772 8.78311 65.0837 9.56771 65.0837H62.8177C63.6023 65.0837 64.3548 64.772 64.9096 64.2172C65.4644 63.6624 65.776 62.9099 65.776 62.1253C65.776 61.3407 65.4644 60.5883 64.9096 60.0335C64.3548 59.4787 63.6023 59.167 62.8177 59.167Z" fill="url(#paint0_linear_768_6195)"/>
<defs>
<linearGradient id="paint0_linear_768_6195" x1="6.60937" y1="47.1544" x2="63.1156" y2="46.0724" gradientUnits="userSpaceOnUse">
<stop offset="0.5" stop-color="#9F36F8"/>
<stop offset="1" stop-color="#21D6E2"/>
</linearGradient>
</defs>
</svg>
