<svg width="29" height="29" viewBox="0 0 29 29" fill="none" xmlns="http://www.w3.org/2000/svg">
<path d="M0.357625 13.6282C0.902146 5.42958 8.51499 -0.828534 17.1487 0.977639C22.4974 2.09648 26.6808 6.35054 27.7398 11.7271C29.495 20.6434 22.7401 28.4574 14.1649 28.4574C10.4786 28.4574 7.13586 27.0075 4.65602 24.6502C4.0525 24.0769 4.46673 23.0561 5.29826 23.0561C5.5318 23.0561 5.75735 23.1436 5.92698 23.3045C8.09707 25.3622 11.0323 26.6167 14.2607 26.5914C20.7501 26.5402 26.0663 21.2419 26.1572 14.7335C26.2512 8.01062 20.8454 2.53107 14.1642 2.53107C8.27899 2.53107 3.39367 6.78513 2.37592 12.3935C2.25915 13.0358 2.74835 13.6282 3.3992 13.6282H13.2288C13.7426 13.6282 14.1587 14.0462 14.1587 14.5609C14.1587 15.0763 13.742 15.4936 13.2288 15.4936H2.21674H1.36923C0.798896 15.4936 0.334271 15.0319 0.329354 14.4598C0.32874 14.3686 0.328125 14.286 0.328125 14.2188C0.328125 13.9038 0.336729 13.9377 0.357625 13.6282Z" fill="url(#paint0_linear_345_5969)"/>
<defs>
<linearGradient id="paint0_linear_345_5969" x1="39.2363" y1="-16.3139" x2="5.74537" y2="24.6914" gradientUnits="userSpaceOnUse">
<stop stop-color="#00FFDD"/>
<stop offset="0.16" stop-color="#2BCAE4"/>
<stop offset="0.3903" stop-color="#6383EE"/>
<stop offset="0.5978" stop-color="#904BF5"/>
<stop offset="0.775" stop-color="#B123FA"/>
<stop offset="0.9148" stop-color="#C50AFE"/>
<stop offset="1" stop-color="#CC01FF"/>
</linearGradient>
</defs>
</svg>
