<svg width="73" height="65" viewBox="0 0 73 65" fill="none" xmlns="http://www.w3.org/2000/svg">
<path d="M72.2079 56.2092L66.0064 64.1703L16.5903 25.6758L10.3888 33.6368L2.15277 27.2211L8.3543 19.2601L0.118293 12.8443L6.31983 4.8833L14.5558 11.299L20.7574 3.33802L28.9934 9.75376L22.7918 17.7148L72.2079 56.2092ZM43.4309 8.20848L35.1949 1.79274L28.9934 9.75376L37.2294 16.1695L43.4309 8.20848ZM43.4309 8.20848L51.6669 14.6242L57.8685 6.6632L49.6325 0.247457L43.4309 8.20848ZM12.4233 48.0136L4.18724 41.5979L10.3888 33.6368L18.6248 40.0526L12.4233 48.0136ZM12.4233 48.0136L20.6593 54.4293L14.4577 62.3904L6.22172 55.9746L12.4233 48.0136Z" fill="url(#paint0_linear_102_1336)"/>
<defs>
<linearGradient id="paint0_linear_102_1336" x1="44.8905" y1="-3.44646" x2="4.28942" y2="50.4519" gradientUnits="userSpaceOnUse">
<stop offset="0.5" stop-color="#9F36F8"/>
<stop offset="1" stop-color="#21D6E2"/>
</linearGradient>
</defs>
</svg>
