<svg width="119" height="30" viewBox="0 0 119 30" fill="none" xmlns="http://www.w3.org/2000/svg">
<path d="M38.8358 11.9082C38.8358 9.78813 36.7742 7.53642 33.2066 7.53642C29.2003 7.53642 24.7992 10.4753 24.1267 16.3385C23.4394 22.2602 27.1241 24.8921 30.8379 24.8921C34.5518 24.8921 36.4964 23.4446 38.4849 21.5145C36.7742 19.3652 34.5664 20.3594 34.1424 20.5788C33.6745 20.8127 33.075 21.1344 31.8468 21.1344C30.4139 21.1344 28.9517 20.491 28.9517 17.8153C38.134 16.9088 38.8358 14.0284 38.8358 11.9082ZM34.2886 12.2592C34.2301 12.9171 33.9669 14.043 29.3173 14.6717C30.2969 11.1918 32.1685 10.9286 33.0311 10.9286C33.8353 10.9286 34.3471 11.5573 34.2886 12.2592ZM18.7313 12.8294C18.7313 12.8294 16.7574 19.0289 16.5966 19.5406C16.5381 19.0143 15.0906 7.88734 15.0906 7.88734C11.7277 7.88734 9.92921 10.2853 8.97882 12.8148C8.97882 12.8148 6.5809 19.0289 6.3762 19.5553C6.36158 19.0728 6.01066 12.8879 6.01066 12.8879C5.80596 9.78813 2.9694 7.90196 0.673828 7.90196L3.45191 24.7605C6.97568 24.7459 8.87647 22.3626 9.87073 19.8331C9.87073 19.8331 11.9908 14.35 12.0786 14.1015C12.0932 14.3354 13.5992 24.7605 13.5992 24.7605C17.1376 24.7605 19.0384 22.5234 20.0619 20.0816L25.0186 7.90196C21.524 7.90196 19.6817 10.2853 18.7313 12.8294ZM51.8197 7.50718C49.6411 7.50718 47.9743 8.69152 46.5706 10.4315V10.4169L47.828 0.28418C44.933 0.28418 42.5789 2.79907 42.1257 6.54217L39.9325 24.6289C41.5993 24.6289 43.3685 24.1464 44.3189 22.9182C45.1669 24.0148 46.439 24.8921 48.3252 24.8921C53.2087 24.8921 56.5571 19.219 56.5571 13.8968C56.5278 9.04243 54.1738 7.50718 51.8197 7.50718ZM51.3664 16.207C50.8547 19.1751 49.2025 21.1929 47.6087 21.1929C46.0004 21.1929 45.3131 20.4764 45.3131 20.4764C45.6202 17.8738 45.8103 16.2801 46.3951 14.9056C46.98 13.5312 48.369 11.338 49.8166 11.338C51.2348 11.338 51.8782 13.2242 51.3664 16.207ZM68.7514 7.90196H65.3446L65.3592 7.7265C65.5931 5.50404 66.1195 4.33432 67.8594 4.14425C69.0438 4.02727 69.5702 3.41317 69.7018 2.74059C69.8041 2.21421 70.1258 0.38653 70.1258 0.38653C63.2829 0.342666 61.1336 3.2962 60.578 7.79961L60.5633 7.90196H60.4902C59.379 7.90196 58.1508 9.15941 57.9461 10.7531L57.873 11.338H60.1539L58.2385 27.1584L57.6537 29.995C57.7268 29.995 57.8145 30.0096 57.8876 30.0096C61.0897 29.8926 63.1367 27.3631 63.59 23.6931L65.0814 11.338H66.1487C67.2015 11.338 68.4297 10.2853 68.649 8.53068L68.7514 7.90196ZM86.4726 7.60953C82.5394 7.60953 78.8255 10.5046 77.6851 15.0519C76.5446 19.5991 78.2699 24.9798 84.06 24.9798C89.8355 24.9798 93.1692 19.3798 93.1692 14.7156C93.1692 10.0806 90.0256 7.60953 86.4726 7.60953ZM88.0663 16.0607C87.8616 18.1224 86.9551 21.2514 84.4694 21.2514C81.9692 21.2514 82.3201 17.596 82.5686 15.856C82.8318 13.9991 83.8699 11.3526 86.107 11.3526C88.1102 11.3526 88.3003 13.7359 88.0663 16.0607ZM112.601 12.8294C112.601 12.8294 110.627 19.0289 110.466 19.5406C110.408 19.0143 108.96 7.88734 108.96 7.88734C105.597 7.88734 103.799 10.2853 102.849 12.8148C102.849 12.8148 100.451 19.0289 100.246 19.5553C100.231 19.0728 99.8804 12.8879 99.8804 12.8879C99.6757 9.78813 96.8392 7.90196 94.5436 7.90196L97.3071 24.7605C100.831 24.7459 102.732 22.3626 103.726 19.8331C103.726 19.8331 105.846 14.35 105.919 14.1015C105.948 14.3354 107.44 24.7605 107.44 24.7605C110.978 24.7605 112.879 22.5234 113.902 20.0816L118.859 7.90196C115.379 7.90196 113.537 10.2853 112.601 12.8294ZM71.9681 0.38653L69.1023 23.5031L68.5174 26.3542C68.5905 26.3542 68.6782 26.3689 68.7514 26.3689C71.8365 26.325 74.0297 23.62 74.4391 20.2132L76.0913 6.95157C76.5885 2.90142 74.1759 0.38653 71.9681 0.38653Z" fill="white"/>
</svg>
