<svg width="112" height="26" viewBox="0 0 112 26" fill="none" xmlns="http://www.w3.org/2000/svg">
<path d="M19.1013 25.4339L11.8717 25.3002C9.53085 25.2537 7.18425 25.3467 4.88941 24.8642C1.39826 24.1434 1.15095 20.6092 0.892135 17.6446C0.535543 13.4767 0.673579 9.23333 1.3465 5.10037C1.7261 2.78103 3.22148 1.39756 5.53357 1.24642C13.3383 0.700011 21.1948 0.763953 28.9823 1.01972C29.8048 1.04297 30.633 1.17086 31.444 1.31618C35.447 2.02535 35.5448 6.03043 35.8036 9.40191C36.0624 12.8083 35.9531 16.2321 35.4585 19.6152C35.0616 22.417 34.3025 24.7654 31.0989 24.9921C27.0844 25.2885 23.1618 25.5269 19.1358 25.4513C19.1358 25.4339 19.1128 25.4339 19.1013 25.4339ZM14.851 18.3421C17.8762 16.5866 20.844 14.8602 23.852 13.1163C20.821 11.3609 17.859 9.63442 14.851 7.89056V18.3421Z" fill="white"/>
<path d="M93.7918 22.2488C93.6538 22.8185 93.533 23.2661 93.4122 23.7428H90.5825V1.68262H93.8838V9.82074C94.0564 9.59985 94.1426 9.50684 94.2174 9.40802C94.7811 8.62328 95.5115 8.11174 96.4547 7.9141C97.9559 7.61764 99.2384 8.28613 99.6928 9.74518C99.9861 10.652 100.176 11.6228 100.199 12.5703C100.245 15.0059 100.21 17.4357 100.124 19.8713C100.09 20.6154 99.8654 21.3769 99.5835 22.0744C98.6575 24.3764 95.6323 24.7251 94.1311 22.7313C94.0391 22.6092 93.9528 22.4755 93.7918 22.2488ZM93.9528 16.1801V20.2143C93.9528 20.8712 94.2979 21.2722 94.9478 21.4234C95.5863 21.5745 96.1039 21.3246 96.3627 20.7258C96.472 20.4759 96.5813 20.2143 96.587 19.9527C96.6503 17.488 96.7078 15.0233 96.7251 12.5528C96.7251 12.0936 96.6158 11.6169 96.4777 11.1693C96.2189 10.3613 95.5057 10.123 94.8041 10.5939C94.2749 10.9543 93.9528 11.4658 93.9528 12.1459V16.1801ZM84.9806 8.228H88.4372V23.7544H85.7398C85.642 23.1673 85.5442 22.5627 85.4292 21.8535C85.2451 22.1268 85.1358 22.3011 85.0208 22.4755C84.1236 23.7834 82.8525 24.231 81.3514 23.9927C80.0688 23.7834 79.2981 22.7836 79.1256 21.1444C79.0738 20.6561 79.0508 20.162 79.0508 19.6737C79.0393 16.0406 79.0508 12.3959 79.0508 8.76279V8.21637H82.5477V8.84998C82.5477 12.361 82.5362 15.8662 82.5592 19.3772C82.5592 19.8771 82.611 20.3945 82.6972 20.8944C82.795 21.4059 83.1631 21.592 83.6577 21.5571C84.4572 21.4931 85.0093 20.8944 85.0093 20.0922V8.91392C84.9806 8.68722 84.9806 8.47795 84.9806 8.228ZM61.181 8.21637H64.6549V8.87323C64.6549 12.3668 64.6434 15.8546 64.6664 19.3365C64.6664 19.8365 64.7124 20.3538 64.8159 20.8421C64.9482 21.4176 65.2818 21.6036 65.8512 21.528C66.6391 21.4176 67.1165 20.8653 67.1223 20.0573V8.93718V8.23962H70.5789V23.7544H67.893C67.7952 23.1789 67.6974 22.586 67.5709 21.8361C67.3983 22.0977 67.3006 22.2488 67.2028 22.4058C66.3055 23.7369 65.046 24.2252 63.5103 23.9869C62.2795 23.8009 61.5261 22.8824 61.296 21.3769C61.2328 20.906 61.1867 20.441 61.1867 19.9701C61.1752 16.1975 61.1752 12.4075 61.1752 8.6349L61.181 8.21637ZM59.398 16.5056C59.3865 17.0288 59.352 17.552 59.3233 18.0751C59.191 19.6446 59.1277 21.871 57.8739 23.0161C57.0744 23.7369 56.0622 23.9985 55.0154 24.0334C54.5495 24.045 54.0779 24.045 53.6121 23.9811C51.4092 23.6439 50.3855 22.6615 50.0174 20.2143C49.5975 17.3892 49.563 14.5176 50.0634 11.6925C50.581 8.7686 52.364 7.7339 55.1362 7.92572C57.7244 8.11174 58.8804 9.82656 59.1852 12.268C59.352 13.6689 59.4325 15.0873 59.398 16.5056ZM55.8781 15.9708C55.8781 14.9768 55.9011 13.977 55.8666 12.983C55.8436 12.4075 55.7689 11.8262 55.6481 11.2565C55.51 10.5997 55.0959 10.2858 54.5783 10.2974C54.0722 10.309 53.7156 10.6229 53.5315 11.2333C53.4683 11.46 53.3993 11.6925 53.3993 11.9192C53.3993 13.4771 53.3878 15.0408 53.3762 16.5986C53.3647 18.0519 53.1807 19.5749 53.6351 20.9642C53.7731 21.3885 54.1297 21.621 54.5956 21.621C55.0499 21.621 55.349 21.3943 55.5158 20.9874C55.6481 20.6735 55.7631 20.3306 55.7631 19.9934C55.8034 18.6564 55.8781 17.3136 55.8781 15.9708ZM44.9446 13.0469C45.2494 11.5414 45.537 10.0707 45.8533 8.59421C46.2502 6.71663 46.693 4.83905 47.0841 2.95565C47.1819 2.49643 47.366 2.38598 47.7973 2.39761C48.7233 2.43249 49.6666 2.40924 50.6558 2.40924C50.3337 3.6067 50.0174 4.74604 49.7068 5.86794C48.7233 9.39059 47.7398 12.9249 46.7678 16.4591C46.693 16.7323 46.6585 17.0288 46.6585 17.3194C46.647 19.2493 46.6585 21.1734 46.6585 23.1033V23.7311H43.2824C43.2709 23.5567 43.2479 23.3823 43.2479 23.208C43.2479 22.1151 43.1616 21.0165 43.2594 19.9353C43.5067 17.3369 42.69 14.9478 42.0286 12.5296C41.1544 9.33246 40.2687 6.12371 39.3944 2.92659C39.3484 2.77545 39.3312 2.61269 39.2852 2.42667H42.7303C43.455 5.95513 44.1854 9.48359 44.9446 13.0469ZM111 17.0986H105.18C105.243 18.2786 105.266 19.4005 105.387 20.5108C105.473 21.2839 105.893 21.6152 106.554 21.621C107.244 21.6327 107.647 21.2839 107.808 20.5166C107.86 20.2666 107.894 20.0167 107.917 19.7609C107.94 19.5342 107.952 19.29 107.969 18.9645C108.953 19.0168 109.913 19.075 110.862 19.1156C111.414 20.7723 110.419 22.8999 108.746 23.5567C107.429 24.0799 106.077 24.0799 104.731 23.6788C103.736 23.3823 102.994 22.7429 102.661 21.7605C102.35 20.8421 102.057 19.883 101.993 18.9238C101.821 16.5579 101.758 14.1688 102.114 11.7971C102.177 11.4019 102.287 11.024 102.408 10.6404C102.891 9.05925 103.943 8.08849 105.571 7.92572C106.457 7.83853 107.371 7.87341 108.245 8.02454C109.66 8.2745 110.414 9.30339 110.741 10.652C110.891 11.2856 111 11.9367 111.023 12.5819C111.029 14.0642 111 15.5349 111 17.0986ZM107.693 15.0582C107.693 13.8898 107.705 12.7912 107.682 11.6867C107.682 11.4251 107.584 11.1519 107.486 10.902C107.29 10.4137 106.882 10.28 106.393 10.28C105.904 10.28 105.594 10.5299 105.473 10.9775C105.105 12.3203 105.226 13.6922 105.237 15.0698C106.117 15.0582 106.917 15.0582 107.693 15.0582Z" fill="white"/>
<path d="M73.2463 5.2579H69.8242V2.45605H80.0388V5.24046H76.6397V23.7315H73.2521L73.2463 5.2579Z" fill="white"/>
</svg>
